<svg xmlns="http://www.w3.org/2000/svg" xmlns:xlink="http://www.w3.org/1999/xlink" preserveAspectRatio="xMidYMid" width="1608.45" height="901.938" viewBox="0 0 571 320.188">
  <defs>
    <style>
      .cls-1 {
        fill: #e74c3c;
        stroke: #e74c3c;
        stroke-width: 3px;
        fill-rule: evenodd;
      }
    </style>
  </defs>
  <path d="M464.938,109.650 C454.752,109.650 444.930,111.180 435.610,113.908 L392.295,8.268 C390.614,4.177 386.625,1.500 382.203,1.500 L331.280,1.500 C325.259,1.500 320.373,6.381 320.373,12.403 C320.373,18.428 325.259,23.310 331.280,23.310 C331.280,23.310 364.158,23.310 374.884,23.310 C375.993,26.027 380.334,36.601 386.437,51.485 L203.304,51.485 L194.298,35.331 L237.017,30.513 C241.376,30.513 244.919,26.974 244.919,22.614 C244.919,18.243 241.376,14.707 237.017,14.707 L164.731,14.707 C160.366,14.707 156.828,18.243 156.828,22.614 C156.828,26.974 155.360,39.611 168.933,38.188 L170.790,37.977 L183.365,60.524 L149.113,119.030 C135.967,113.061 121.429,109.650 106.068,109.650 C48.409,109.650 1.506,156.539 1.506,214.171 C1.506,271.803 48.409,318.688 106.068,318.688 C160.039,318.688 204.571,277.602 210.046,225.080 L275.828,225.080 C275.828,243.475 275.828,259.526 275.828,263.245 C270.265,263.245 262.187,263.245 262.187,263.245 C259.176,263.245 256.736,265.683 256.736,268.699 C256.736,271.715 259.176,274.148 262.187,274.148 L281.285,274.148 C284.302,274.148 286.736,271.715 286.736,268.699 C286.736,268.699 286.736,247.219 286.736,223.745 C286.773,223.726 286.811,223.726 286.848,223.701 C287.181,223.513 287.476,223.262 287.789,223.049 C288.015,222.886 288.266,222.748 288.479,222.560 C289.038,222.108 289.533,221.594 289.972,221.055 C290.016,221.005 290.059,220.974 290.097,220.929 L290.122,220.898 C290.135,220.892 290.135,220.879 290.147,220.873 L399.207,82.644 C404.350,95.177 409.894,108.685 415.413,122.153 C382.686,139.830 360.383,174.439 360.383,214.171 C360.383,271.803 407.285,318.688 464.938,318.688 C522.591,318.688 569.494,271.803 569.494,214.171 C569.494,156.539 522.591,109.650 464.938,109.650 ZM195.696,82.644 L262.958,203.274 C250.445,203.274 230.863,203.268 210.046,203.268 C206.930,173.280 190.998,147.109 167.917,130.093 C179.044,111.092 189.487,93.258 195.696,82.644 ZM188.000,203.268 C161.658,203.268 136.726,203.262 125.091,203.262 C130.981,193.198 143.569,171.712 156.853,149.016 C173.537,162.038 185.084,181.292 188.000,203.268 ZM106.068,296.882 C60.445,296.882 23.333,259.771 23.333,214.171 C23.333,168.565 60.445,131.463 106.068,131.463 C117.408,131.463 128.215,133.761 138.068,137.909 L96.654,208.660 C94.678,212.026 94.659,216.202 96.603,219.594 C98.548,222.986 102.161,225.074 106.068,225.074 L188.000,225.080 C182.632,265.533 147.984,296.882 106.068,296.882 ZM286.736,189.970 C286.736,177.568 286.736,167.875 286.736,165.091 C292.305,165.091 300.371,165.091 300.371,165.091 C303.394,165.091 305.828,162.646 305.828,159.637 C305.828,156.620 303.394,154.181 300.371,154.181 L281.285,154.181 C278.268,154.181 275.828,156.620 275.828,159.637 C275.828,159.637 275.828,168.733 275.828,181.543 L215.472,73.295 C252.923,73.295 350.008,73.295 378.797,73.295 C361.857,94.763 309.522,161.091 286.736,189.970 ZM464.938,296.882 C419.315,296.882 382.203,259.771 382.203,214.171 C382.203,183.549 398.968,156.828 423.768,142.532 C440.401,183.085 454.840,218.303 454.840,218.303 C457.123,223.876 463.495,226.541 469.078,224.259 C474.647,221.977 477.306,215.606 475.036,210.033 L443.958,134.259 C450.676,132.491 457.675,131.463 464.938,131.463 C510.561,131.463 547.673,168.565 547.673,214.171 C547.673,259.771 510.561,296.882 464.938,296.882 Z" class="cls-1"/>
</svg>
