<svg xmlns="http://www.w3.org/2000/svg" xmlns:xlink="http://www.w3.org/1999/xlink" preserveAspectRatio="xMidYMid" width="400" height="251" viewBox="0 0 400 251">
  <defs>
    <style>
      .cls-1 {
        fill: #000;
        filter: url(#color-overlay-1);
        fill-rule: evenodd;
      }
    </style>

    <filter id="color-overlay-1" filterUnits="userSpaceOnUse">
      <feFlood flood-color="#fff"/>
      <feComposite operator="in" in2="SourceGraphic"/>
      <feBlend in2="SourceGraphic" result="solidFill"/>
    </filter>
  </defs>
  <path d="M-0.000,251.000 L-0.000,106.000 L-1.000,106.000 L-1.000,92.000 L20.000,92.000 L20.000,63.000 L34.000,63.000 L34.000,83.000 L41.000,83.000 L41.000,42.000 L41.817,42.000 L40.987,41.513 L63.987,28.012 L63.987,42.000 L64.000,42.000 L64.000,87.000 L73.000,87.000 L73.000,58.000 L95.000,58.000 L95.000,90.000 L103.000,90.000 L103.000,102.000 L108.000,102.000 L108.000,64.000 L117.000,64.000 L117.000,58.000 L141.000,58.000 L141.000,75.000 L155.000,75.000 L155.000,102.000 L172.000,102.000 L172.000,78.000 L183.000,78.000 L183.000,46.000 L183.000,42.000 L183.000,36.000 L191.000,36.000 L191.000,42.000 L211.000,42.000 L211.000,60.497 L217.515,49.000 L225.448,63.000 L226.000,63.000 L226.000,63.975 L226.014,64.000 L226.000,64.000 L226.000,102.000 L241.000,102.000 L241.000,76.000 L249.000,76.000 L249.000,19.000 L253.000,19.000 L253.000,9.000 L257.000,9.000 L257.000,0.000 L263.000,0.000 L263.000,9.000 L267.000,9.000 L267.000,19.000 L272.000,19.000 L272.000,102.000 L301.000,102.000 L301.000,90.000 L301.000,86.000 L301.000,66.000 L310.000,66.000 L310.000,17.000 L335.000,17.000 L335.000,52.000 L341.000,52.000 L341.000,66.000 L341.000,69.000 L341.000,86.000 L365.000,86.000 L365.000,102.000 L378.000,102.000 L378.000,93.000 L378.908,93.000 L382.500,85.000 L386.092,93.000 L387.000,93.000 L387.000,102.000 L400.000,102.000 L400.000,251.000 L-0.000,251.000 Z" class="cls-1"/>
</svg>
