<svg xmlns="http://www.w3.org/2000/svg" xmlns:xlink="http://www.w3.org/1999/xlink" preserveAspectRatio="xMidYMid" width="999.954" height="216.124" viewBox="0 0 1314 284">
  <defs>
    <style>
      .cls-1 {
        fill: #e74c3c;
      }

      .cls-1, .cls-2, .cls-3 {
        fill-rule: evenodd;
      }

      .cls-2 {
        fill: #f5cd0c;
      }

      .cls-3 {
        fill: #20a286;
      }
    </style>
  </defs>
  <g>
    <path d="M1220.535,96.834 C1211.429,96.834 1202.650,98.204 1194.319,100.646 L1155.600,6.059 C1154.098,2.397 1150.532,-0.001 1146.579,-0.001 L1101.061,-0.001 C1095.678,-0.001 1091.311,4.370 1091.311,9.761 C1091.311,15.156 1095.678,19.527 1101.061,19.527 C1101.061,19.527 1130.450,19.527 1140.037,19.527 C1141.029,21.960 1144.909,31.428 1150.364,44.754 L986.666,44.754 L978.615,30.291 L1016.801,25.977 C1020.697,25.977 1023.865,22.808 1023.865,18.904 C1023.865,14.991 1020.697,11.824 1016.801,11.824 L952.186,11.824 C948.284,11.824 945.122,14.991 945.122,18.904 C945.122,22.808 943.810,34.122 955.943,32.848 L957.602,32.660 L968.843,52.847 L938.226,105.232 C926.475,99.888 913.479,96.834 899.749,96.834 C848.208,96.834 806.283,138.816 806.283,190.418 C806.283,242.020 848.208,284.000 899.749,284.000 C947.993,284.000 987.799,247.213 992.693,200.186 L1051.494,200.186 C1051.494,216.656 1051.494,231.028 1051.494,234.357 C1046.521,234.357 1039.300,234.357 1039.300,234.357 C1036.608,234.357 1034.428,236.541 1034.428,239.241 C1034.428,241.942 1036.608,244.119 1039.300,244.119 L1056.371,244.119 C1059.068,244.119 1061.244,241.942 1061.244,239.241 C1061.244,239.241 1061.244,220.009 1061.244,198.990 C1061.277,198.974 1061.311,198.974 1061.344,198.952 C1061.641,198.783 1061.905,198.558 1062.185,198.368 C1062.387,198.222 1062.611,198.097 1062.802,197.929 C1063.301,197.525 1063.744,197.065 1064.136,196.583 C1064.176,196.537 1064.215,196.510 1064.249,196.470 L1064.271,196.442 C1064.282,196.437 1064.282,196.425 1064.293,196.419 L1161.779,72.653 C1166.376,83.875 1171.332,95.969 1176.266,108.028 C1147.011,123.856 1127.075,154.843 1127.075,190.418 C1127.075,242.020 1169.000,284.000 1220.535,284.000 C1272.069,284.000 1313.995,242.020 1313.995,190.418 C1313.995,138.816 1272.069,96.834 1220.535,96.834 ZM979.865,72.653 L1039.989,180.661 C1028.804,180.661 1011.301,180.656 992.693,180.656 C989.907,153.806 975.666,130.373 955.035,115.138 C964.980,98.125 974.315,82.157 979.865,72.653 ZM972.986,180.656 C949.439,180.656 927.153,180.650 916.753,180.650 C922.018,171.640 933.270,152.402 945.144,132.081 C960.058,143.740 970.379,160.980 972.986,180.656 ZM899.749,264.475 C858.967,264.475 825.794,231.247 825.794,190.418 C825.794,149.584 858.967,116.364 899.749,116.364 C909.885,116.364 919.545,118.421 928.353,122.135 L891.334,185.484 C889.567,188.498 889.550,192.237 891.288,195.274 C893.027,198.311 896.256,200.180 899.749,200.180 L972.986,200.186 C968.187,236.406 937.217,264.475 899.749,264.475 ZM1061.244,168.749 C1061.244,157.645 1061.244,148.966 1061.244,146.474 C1066.222,146.474 1073.432,146.474 1073.432,146.474 C1076.134,146.474 1078.309,144.284 1078.309,141.590 C1078.309,138.889 1076.134,136.705 1073.432,136.705 L1056.371,136.705 C1053.675,136.705 1051.494,138.889 1051.494,141.590 C1051.494,141.590 1051.494,149.735 1051.494,161.204 L997.543,64.282 C1031.019,64.282 1117.801,64.282 1143.535,64.282 C1128.392,83.504 1081.612,142.892 1061.244,168.749 ZM1220.535,264.475 C1179.753,264.475 1146.579,231.247 1146.579,190.418 C1146.579,163.001 1161.566,139.075 1183.734,126.275 C1198.602,162.585 1211.508,194.118 1211.508,194.118 C1213.549,199.108 1219.245,201.495 1224.235,199.451 C1229.213,197.407 1231.590,191.703 1229.561,186.714 L1201.781,118.868 C1207.786,117.284 1214.042,116.364 1220.535,116.364 C1261.316,116.364 1294.489,149.584 1294.489,190.418 C1294.489,231.247 1261.316,264.475 1220.535,264.475 Z" class="cls-1"/>
    <path d="M817.396,96.834 C808.291,96.834 799.511,98.204 791.180,100.646 L752.461,6.059 C750.959,2.397 747.393,-0.001 743.440,-0.001 L697.922,-0.001 C692.540,-0.001 688.172,4.370 688.172,9.761 C688.172,15.156 692.540,19.527 697.922,19.527 C697.922,19.527 727.311,19.527 736.898,19.527 C737.890,21.960 741.770,31.428 747.225,44.754 L583.527,44.754 L575.477,30.291 L613.662,25.977 C617.559,25.977 620.726,22.808 620.726,18.904 C620.726,14.991 617.559,11.824 613.662,11.824 L549.047,11.824 C545.145,11.824 541.983,14.991 541.983,18.904 C541.983,22.808 540.671,34.122 552.804,32.848 L554.463,32.660 L565.704,52.847 L535.087,105.232 C523.336,99.888 510.340,96.834 496.610,96.834 C445.070,96.834 403.144,138.816 403.144,190.418 C403.144,242.020 445.070,284.000 496.610,284.000 C544.854,284.000 584.660,247.213 589.554,200.186 L648.355,200.186 C648.355,216.656 648.355,231.028 648.355,234.357 C643.382,234.357 636.161,234.357 636.161,234.357 C633.469,234.357 631.289,236.541 631.289,239.241 C631.289,241.942 633.469,244.119 636.161,244.119 L653.232,244.119 C655.929,244.119 658.105,241.942 658.105,239.241 C658.105,239.241 658.105,220.009 658.105,198.990 C658.138,198.974 658.172,198.974 658.205,198.952 C658.503,198.783 658.766,198.558 659.046,198.368 C659.248,198.222 659.472,198.097 659.663,197.929 C660.162,197.525 660.605,197.065 660.998,196.583 C661.037,196.537 661.076,196.510 661.110,196.470 L661.132,196.442 C661.143,196.437 661.143,196.425 661.154,196.419 L758.640,72.653 C763.237,83.875 768.193,95.969 773.127,108.028 C743.872,123.856 723.936,154.843 723.936,190.418 C723.936,242.020 765.861,284.000 817.396,284.000 C868.930,284.000 910.856,242.020 910.856,190.418 C910.856,138.816 868.930,96.834 817.396,96.834 ZM576.727,72.653 L636.850,180.661 C625.666,180.661 608.162,180.656 589.554,180.656 C586.768,153.806 572.527,130.373 551.896,115.138 C561.842,98.125 571.176,82.157 576.727,72.653 ZM569.847,180.656 C546.300,180.656 524.014,180.650 513.615,180.650 C518.879,171.640 530.131,152.402 542.005,132.081 C556.919,143.740 567.240,160.980 569.847,180.656 ZM496.610,264.475 C455.829,264.475 422.655,231.247 422.655,190.418 C422.655,149.584 455.829,116.364 496.610,116.364 C506.746,116.364 516.406,118.421 525.214,122.135 L488.195,185.484 C486.429,188.498 486.412,192.237 488.150,195.274 C489.888,198.311 493.117,200.180 496.610,200.180 L569.847,200.186 C565.048,236.406 534.078,264.475 496.610,264.475 ZM658.105,168.749 C658.105,157.645 658.105,148.966 658.105,146.474 C663.083,146.474 670.293,146.474 670.293,146.474 C672.995,146.474 675.171,144.284 675.171,141.590 C675.171,138.889 672.995,136.705 670.293,136.705 L653.232,136.705 C650.536,136.705 648.355,138.889 648.355,141.590 C648.355,141.590 648.355,149.735 648.355,161.204 L594.404,64.282 C627.880,64.282 714.662,64.282 740.396,64.282 C725.254,83.504 678.473,142.892 658.105,168.749 ZM817.396,264.475 C776.614,264.475 743.440,231.247 743.440,190.418 C743.440,163.001 758.427,139.075 780.595,126.275 C795.463,162.585 808.370,194.118 808.370,194.118 C810.410,199.108 816.106,201.495 821.096,199.451 C826.075,197.407 828.451,191.703 826.422,186.714 L798.642,118.868 C804.647,117.284 810.903,116.364 817.396,116.364 C858.177,116.364 891.350,149.584 891.350,190.418 C891.350,231.247 858.177,264.475 817.396,264.475 Z" class="cls-2"/>
    <path d="M414.257,96.834 C405.152,96.834 396.372,98.204 388.041,100.646 L349.323,6.059 C347.820,2.397 344.254,-0.001 340.302,-0.001 L294.783,-0.001 C289.401,-0.001 285.033,4.370 285.033,9.761 C285.033,15.156 289.401,19.527 294.783,19.527 C294.783,19.527 324.172,19.527 333.759,19.527 C334.751,21.960 338.631,31.428 344.086,44.754 L180.388,44.754 L172.338,30.291 L210.523,25.977 C214.420,25.977 217.587,22.808 217.587,18.904 C217.587,14.991 214.420,11.824 210.523,11.824 L145.909,11.824 C142.006,11.824 138.845,14.991 138.845,18.904 C138.845,22.808 137.533,34.122 149.665,32.848 L151.324,32.660 L162.565,52.847 L131.948,105.232 C120.198,99.888 107.201,96.834 93.472,96.834 C41.931,96.834 0.006,138.816 0.006,190.418 C0.006,242.020 41.931,284.000 93.472,284.000 C141.715,284.000 181.521,247.213 186.415,200.186 L245.216,200.186 C245.216,216.656 245.216,231.028 245.216,234.357 C240.243,234.357 233.022,234.357 233.022,234.357 C230.331,234.357 228.150,236.541 228.150,239.241 C228.150,241.942 230.331,244.119 233.022,244.119 L250.094,244.119 C252.791,244.119 254.966,241.942 254.966,239.241 C254.966,239.241 254.966,220.009 254.966,198.990 C254.999,198.974 255.033,198.974 255.067,198.952 C255.364,198.783 255.627,198.558 255.908,198.368 C256.110,198.222 256.334,198.097 256.524,197.929 C257.024,197.525 257.466,197.065 257.859,196.583 C257.898,196.537 257.937,196.510 257.971,196.470 L257.993,196.442 C258.005,196.437 258.005,196.425 258.016,196.419 L355.501,72.653 C360.099,83.875 365.054,95.969 369.988,108.028 C340.734,123.856 320.797,154.843 320.797,190.418 C320.797,242.020 362.722,284.000 414.257,284.000 C465.791,284.000 507.717,242.020 507.717,190.418 C507.717,138.816 465.791,96.834 414.257,96.834 ZM173.588,72.653 L233.712,180.661 C222.527,180.661 205.023,180.656 186.415,180.656 C183.629,153.806 169.388,130.373 148.757,115.138 C158.703,98.125 168.038,82.157 173.588,72.653 ZM166.709,180.656 C143.162,180.656 120.876,180.650 110.476,180.650 C115.740,171.640 126.992,152.402 138.867,132.081 C153.780,143.740 164.102,160.980 166.709,180.656 ZM93.472,264.475 C52.690,264.475 19.516,231.247 19.516,190.418 C19.516,149.584 52.690,116.364 93.472,116.364 C103.608,116.364 113.267,118.421 122.076,122.135 L85.056,185.484 C83.290,188.498 83.273,192.237 85.011,195.274 C86.749,198.311 89.978,200.180 93.472,200.180 L166.709,200.186 C161.910,236.406 130.939,264.475 93.472,264.475 ZM254.966,168.749 C254.966,157.645 254.966,148.966 254.966,146.474 C259.945,146.474 267.154,146.474 267.154,146.474 C269.857,146.474 272.032,144.284 272.032,141.590 C272.032,138.889 269.857,136.705 267.154,136.705 L250.094,136.705 C247.397,136.705 245.216,138.889 245.216,141.590 C245.216,141.590 245.216,149.735 245.216,161.204 L191.265,64.282 C224.741,64.282 311.524,64.282 337.257,64.282 C322.115,83.504 275.334,142.892 254.966,168.749 ZM414.257,264.475 C373.475,264.475 340.302,231.247 340.302,190.418 C340.302,163.001 355.288,139.075 377.456,126.275 C392.324,162.585 405.231,194.118 405.231,194.118 C407.272,199.108 412.967,201.495 417.957,199.451 C422.936,197.407 425.313,191.703 423.283,186.714 L395.504,118.868 C401.508,117.284 407.765,116.364 414.257,116.364 C455.039,116.364 488.211,149.584 488.211,190.418 C488.211,231.247 455.039,264.475 414.257,264.475 Z" class="cls-3"/>
  </g>
</svg>
