<svg xmlns="http://www.w3.org/2000/svg" xmlns:xlink="http://www.w3.org/1999/xlink" preserveAspectRatio="xMidYMid" width="635.667" height="666.478" viewBox="0 0 392 411">
  <defs>
    <style>
      .cls-1 {
        fill: #e74c3c;
        stroke: #e74c3c;
        stroke-width: 3px;
        fill-rule: evenodd;
      }
    </style>
  </defs>
  <path d="M190.487,176.875 L279.378,270.481 L360.836,265.836 L390.492,301.400 L310.027,322.756 C310.027,322.756 306.474,318.025 324.149,337.637 C340.832,356.133 326.865,360.499 312.914,348.308 C298.962,336.117 298.776,333.427 298.776,333.427 L264.124,409.500 L236.065,364.949 L254.470,304.276 L160.506,205.327 L73.988,396.418 L47.357,373.379 L80.475,118.559 C80.475,118.559 13.123,42.632 5.427,24.525 C-2.286,6.402 0.135,-6.052 24.174,6.736 C48.197,19.530 116.757,89.222 116.757,89.222 L349.647,81.824 L390.212,114.526 L190.487,176.875 Z" class="cls-1"/>
</svg>
