<svg xmlns="http://www.w3.org/2000/svg" xmlns:xlink="http://www.w3.org/1999/xlink" preserveAspectRatio="xMidYMid" width="925.934" height="519.204" viewBox="0 0 571 320.18">
  <defs>
    <style>
      .cls-1 {
        fill: #f5cd0c;
        stroke: #f5cd0c;
        stroke-width: 3px;
        fill-rule: evenodd;
      }
    </style>
  </defs>
  <path d="M464.938,109.646 C454.752,109.646 444.930,111.176 435.610,113.903 L392.295,8.264 C390.614,4.173 386.625,1.496 382.203,1.496 L331.280,1.496 C325.259,1.496 320.373,6.377 320.373,12.398 C320.373,18.424 325.259,23.305 331.280,23.305 C331.280,23.305 364.158,23.305 374.884,23.305 C375.994,26.023 380.334,36.597 386.437,51.480 L203.304,51.480 L194.298,35.327 L237.017,30.509 C241.376,30.509 244.920,26.970 244.920,22.609 C244.920,18.239 241.376,14.703 237.017,14.703 L164.731,14.703 C160.366,14.703 156.828,18.239 156.828,22.609 C156.828,26.970 155.361,39.606 168.934,38.183 L170.790,37.972 L183.365,60.519 L149.113,119.025 C135.968,113.057 121.429,109.646 106.069,109.646 C48.409,109.646 1.506,156.534 1.506,214.166 C1.506,271.798 48.409,318.684 106.069,318.684 C160.040,318.684 204.572,277.598 210.047,225.076 L275.828,225.076 C275.828,243.470 275.828,259.521 275.828,263.240 C270.265,263.240 262.187,263.240 262.187,263.240 C259.176,263.240 256.736,265.679 256.736,268.695 C256.736,271.711 259.176,274.143 262.187,274.143 L281.285,274.143 C284.302,274.143 286.736,271.711 286.736,268.695 C286.736,268.695 286.736,247.215 286.736,223.740 C286.773,223.722 286.811,223.722 286.848,223.697 C287.181,223.508 287.476,223.258 287.789,223.044 C288.015,222.881 288.266,222.743 288.479,222.555 C289.038,222.104 289.533,221.589 289.972,221.051 C290.016,221.000 290.060,220.969 290.098,220.925 L290.122,220.894 C290.135,220.888 290.135,220.875 290.148,220.868 L399.207,82.639 C404.350,95.172 409.894,108.680 415.413,122.148 C382.686,139.826 360.383,174.434 360.383,214.166 C360.383,271.798 407.285,318.684 464.938,318.684 C522.591,318.684 569.494,271.798 569.494,214.166 C569.494,156.534 522.591,109.646 464.938,109.646 ZM195.697,82.639 L262.958,203.269 C250.445,203.269 230.864,203.264 210.047,203.264 C206.930,173.275 190.998,147.105 167.918,130.089 C179.044,111.088 189.487,93.254 195.697,82.639 ZM188.001,203.264 C161.658,203.264 136.726,203.257 125.092,203.257 C130.981,193.193 143.569,171.707 156.853,149.011 C173.537,162.033 185.084,181.287 188.001,203.264 ZM106.069,296.877 C60.445,296.877 23.333,259.766 23.333,214.166 C23.333,168.560 60.445,131.459 106.069,131.459 C117.408,131.459 128.215,133.756 138.069,137.904 L96.654,208.655 C94.678,212.022 94.659,216.197 96.604,219.589 C98.548,222.981 102.161,225.069 106.069,225.069 L188.001,225.076 C182.632,265.528 147.984,296.877 106.069,296.877 ZM286.736,189.965 C286.736,177.563 286.736,167.870 286.736,165.087 C292.306,165.087 300.371,165.087 300.371,165.087 C303.394,165.087 305.828,162.641 305.828,159.632 C305.828,156.615 303.394,154.177 300.371,154.177 L281.285,154.177 C278.268,154.177 275.828,156.615 275.828,159.632 C275.828,159.632 275.828,168.729 275.828,181.539 L215.473,73.290 C252.923,73.290 350.008,73.290 378.797,73.290 C361.857,94.759 309.522,161.086 286.736,189.965 ZM464.938,296.877 C419.315,296.877 382.203,259.766 382.203,214.166 C382.203,183.545 398.969,156.823 423.768,142.528 C440.402,183.080 454.840,218.298 454.840,218.298 C457.124,223.872 463.495,226.537 469.078,224.254 C474.647,221.972 477.306,215.602 475.036,210.029 L443.958,134.255 C450.676,132.486 457.675,131.459 464.938,131.459 C510.561,131.459 547.673,168.560 547.673,214.166 C547.673,259.766 510.561,296.877 464.938,296.877 Z" class="cls-1"/>
</svg>
