<svg xmlns="http://www.w3.org/2000/svg" xmlns:xlink="http://www.w3.org/1999/xlink" preserveAspectRatio="xMidYMid" width="681.072" height="570.803" viewBox="0 0 420 352">
  <defs>
    <style>
      .cls-1 {
        fill: #e74c3c;
        stroke: #e74c3c;
        stroke-width: 3px;
        fill-rule: evenodd;
      }
    </style>
  </defs>
  <path d="M410.852,154.888 C407.200,147.836 397.202,139.795 397.202,139.795 L355.933,32.530 L355.923,32.530 C347.365,12.207 322.153,1.498 311.157,1.498 L108.835,1.498 C97.839,1.498 72.628,12.207 64.069,32.530 L22.798,139.795 C22.798,139.795 12.800,147.836 9.143,154.888 C5.486,161.941 1.495,168.220 1.495,215.781 C1.495,262.152 11.062,278.650 22.531,284.360 L31.583,289.328 L31.583,332.381 C31.583,346.353 34.993,350.502 48.650,350.502 L79.293,350.502 C92.953,350.502 96.358,346.353 96.358,332.381 L96.358,289.328 L323.634,289.328 L323.634,332.381 C323.634,346.353 327.049,350.502 340.699,350.502 L371.352,350.502 C385.002,350.502 388.417,346.353 388.417,332.381 L388.417,289.328 L397.469,284.360 C408.938,278.650 418.505,262.152 418.505,215.781 C418.505,168.220 414.514,161.941 410.852,154.888 ZM82.184,238.126 C67.505,238.126 55.563,226.228 55.563,211.616 C55.563,197.004 67.505,185.112 82.184,185.112 C96.852,185.112 108.794,197.004 108.794,211.616 C108.794,226.228 96.852,238.126 82.184,238.126 ZM338.817,238.126 C324.148,238.126 312.206,226.228 312.206,211.616 C312.206,197.004 324.148,185.112 338.817,185.112 C353.495,185.112 365.438,197.004 365.438,211.616 C365.438,226.228 353.495,238.126 338.817,238.126 ZM368.431,139.795 L51.561,139.795 C51.561,139.795 43.998,140.506 46.303,132.409 C48.239,125.587 75.467,58.236 81.186,39.742 C83.500,33.376 96.656,18.769 114.431,19.854 L305.561,19.854 C323.336,18.769 336.492,33.376 338.806,39.742 C344.536,58.236 371.754,125.587 373.697,132.409 C375.992,140.506 368.431,139.795 368.431,139.795 Z" class="cls-1"/>
</svg>
